<svg width="18" height="26" viewBox="0 0 18 26" fill="none" xmlns="http://www.w3.org/2000/svg">
<path d="M0 22.3906V25.9999H18V22.0504C18 21.4065 17.9314 20.7643 17.7953 20.1349L17.7501 19.9255C17.3934 18.2758 16.5466 16.7723 15.3207 15.6123C14.6312 14.9599 13.8358 14.4294 12.9685 14.0437L12.5789 13.8704C11.4216 13.3556 10.1616 13.0896 8.89497 13.0896C7.54559 13.0896 6.20548 13.3938 4.98987 13.9796L4.89737 14.0241C4.06962 14.423 3.31331 14.9556 2.65885 15.6006C1.59789 16.6461 0.835602 17.9562 0.450878 19.3952L0.338058 19.8172C0.11365 20.6566 0 21.5217 0 22.3906Z" fill="white"/>
<path d="M0 22.3906V25.9999H18V22.0504C18 21.4065 17.9314 20.7643 17.7953 20.1349L17.7501 19.9255C17.3934 18.2758 16.5466 16.7723 15.3207 15.6123C14.6312 14.9599 13.8358 14.4294 12.9685 14.0437L12.5789 13.8704C11.4216 13.3556 10.1616 13.0896 8.89497 13.0896C7.54559 13.0896 6.20548 13.3938 4.98987 13.9796L4.89737 14.0241C4.06962 14.423 3.31331 14.9556 2.65885 15.6006C1.59789 16.6461 0.835602 17.9562 0.450878 19.3952L0.338058 19.8172C0.11365 20.6566 0 21.5217 0 22.3906Z" fill="#576832"/>
<path d="M16.2858 6.54483C16.2858 10.1594 13.0239 13.0897 9.00007 13.0897C4.97628 13.0897 1.71436 10.1594 1.71436 6.54483C1.71436 2.93022 4.97628 0 9.00007 0C13.0239 0 16.2858 2.93022 16.2858 6.54483Z" fill="white"/>
<path d="M16.2858 6.54483C16.2858 10.1594 13.0239 13.0897 9.00007 13.0897C4.97628 13.0897 1.71436 10.1594 1.71436 6.54483C1.71436 2.93022 4.97628 0 9.00007 0C13.0239 0 16.2858 2.93022 16.2858 6.54483Z" fill="#576832"/>
</svg>
