<svg width="55" height="55" viewBox="0 0 55 55" fill="none" xmlns="http://www.w3.org/2000/svg">
<g clip-path="url(#clip0_773_5707)">
<path fill-rule="evenodd" clip-rule="evenodd" d="M39.9627 49.1904C39.495 48.5383 10.7563 9.46534 8.17997 5.88113H16.0491C18.1918 8.85956 41.068 40.0237 47.6618 49.1904H39.9669H39.9627ZM-4 54.9958H4.19225C8.31176 50.7259 17.7156 40.9955 22.5961 35.9431C24.8366 39.1277 31.8172 48.105 36.6297 54.9874H59C55.6882 50.3851 39.3505 29.1869 34.9844 23.1207C41.6122 16.2594 50.0553 7.52601 57.3292 0C56.6788 0 49.154 0 49.1412 0C48.0699 1.1106 35.1715 14.4589 31.8555 17.8916C30.2612 15.6578 19.1781 0.35758 18.9358 0H-2.93293C-0.98158 2.7134 16.8314 27.4706 19.2929 30.8949C17.4691 32.8216 -1.14738 51.9795 -4 55V54.9958Z" fill="#FF4D00"/>
</g>
<defs>
<clipPath id="clip0_773_5707">
<rect width="55" height="55" fill="white"/>
</clipPath>
</defs>
</svg>
